<?xml version="1.0" encoding="utf-8"?>
<!-- Generator: Adobe Illustrator 24.2.1, SVG Export Plug-In . SVG Version: 6.00 Build 0)  -->
<svg version="1.1" id="Design" xmlns="http://www.w3.org/2000/svg" xmlns:xlink="http://www.w3.org/1999/xlink" x="0px" y="0px"
	 viewBox="0 0 589.97 425.55" style="enable-background:new 0 0 589.97 425.55;" xml:space="preserve">
<style type="text/css">
	.st0{fill:#FFFFFF;}
	.st1{fill:url(#SVGID_1_);}
	.st2{fill:url(#SVGID_2_);}
	.st3{fill:url(#SVGID_3_);}
	.st4{fill:url(#SVGID_4_);}
	.st5{fill:url(#SVGID_5_);}
	.st6{fill:url(#SVGID_6_);}
	.st7{fill:url(#SVGID_7_);}
	.st8{fill:url(#SVGID_8_);}
	.st9{fill:url(#SVGID_9_);}
	.st10{fill:url(#SVGID_10_);}
	.st11{fill:#9E0B0F;}
</style>
<g>
	<g>
		<path class="st0" d="M90.44,214.91l-49.31-94.32l13.08-4.19c35.7-11.43,71.87-19.84,107.54-25
			c36.12-31.29,84.52-48.49,136.53-48.49c70.41,0,134.42,32.19,167.62,84.16c19.93,7.78,39.5,16.46,61.42,27.25l5.74,2.83
			l14.22,139.04l-15.86-3.82c-22.85-5.5-45.2-9.91-66.51-13.12c-33.47,51.07-96.89,82.63-166.63,82.63
			c-49.83,0-96.63-15.93-132.28-44.93c-31.71,13.53-64.18,30.19-99.15,50.83l-25.09,14.82L90.44,214.91z"/>
		<path d="M540.18,288.07l-12.97-126.84l-2.64-1.3c-17.94-8.83-38.95-18.53-62.88-27.79c-30.57-49.28-92.25-82.98-163.4-82.98
			c-48.31,0-92.26,15.54-125.07,40.93c4.2-0.39,8.38-0.74,12.53-1.05c30.64-20.86,69.85-33.4,112.54-33.4
			c65.11,0,122.13,29.19,152.98,72.58c-54.25-19.94-122.5-36.84-203.49-36.84c-62.96,0-127.45,10.42-191.66,30.98l-6.02,1.93
			l47.03,89.97L52.14,369.24l11.55-6.82c55.45-32.74,105.98-56.17,154.47-71.63c52.14-16.62,103.75-24.7,157.77-24.7
			c25.53,0,51.66,1.8,78.78,5.42c-29.92,46.17-88.8,77.65-156.42,77.65c-46.09,0-88.13-14.63-119.71-38.56
			c-2.28,0.98-4.55,1.97-6.82,2.97c32.96,26.07,77.5,42.07,126.53,42.07c71.23,0,132.98-33.78,163.51-83.16
			c22.89,3.3,46.5,7.9,71.09,13.82L540.18,288.07z M465.34,266.48L465.34,266.48C465.33,266.48,465.33,266.48,465.34,266.48
			c-30.93-4.58-60.54-6.86-89.41-6.86c-54.7,0-106.94,8.18-159.73,25c-48.22,15.37-98.38,38.52-153.28,70.74l41.16-141.76
			L59.4,128.09c63.15-20.08,126.52-30.26,188.38-30.26c84.22,0,154.54,18.5,209.51,39.55l0,0c3.24,1.24,6.43,2.49,9.56,3.75
			c0,0,0,0,0,0c20.39,8.17,38.53,16.57,54.28,24.31l11.68,114.19C509.53,274.07,487.11,269.71,465.34,266.48z"/>
		<linearGradient id="SVGID_1_" gradientUnits="userSpaceOnUse" x1="429.0784" y1="193.993" x2="199.5789" y2="193.993">
			<stop  offset="0.0373" style="stop-color:#E11B22"/>
			<stop  offset="0.1916" style="stop-color:#DC1A21"/>
			<stop  offset="0.4131" style="stop-color:#CE181E"/>
			<stop  offset="0.6737" style="stop-color:#B61318"/>
			<stop  offset="0.9" style="stop-color:#9E0B0F"/>
		</linearGradient>
		<path class="st1" d="M332.8,97.67c35.4,5.29,67.54,13.46,96.28,22.84c-30.7-34.44-79.75-56.79-134.94-56.79
			c-35.04,0-67.59,9.02-94.56,24.41C247.13,85.48,291.8,88.04,332.8,97.67z M346.76,266.91c-65.1,8.69-106.06,19.7-140.55,32.56
			c0.06,0.04,0.13,0.08,0.19,0.12c1.47,0.89,2.95,1.76,4.46,2.6c0.18,0.1,0.36,0.2,0.55,0.3c3.08,1.71,6.24,3.33,9.47,4.86
			c0.22,0.1,0.43,0.2,0.65,0.31c1.58,0.74,3.19,1.46,4.81,2.16c0.19,0.08,0.38,0.16,0.57,0.24c1.63,0.69,3.28,1.37,4.95,2.02
			c0.04,0.02,0.08,0.03,0.13,0.05c1.67,0.65,3.37,1.27,5.07,1.87c0.27,0.1,0.54,0.19,0.81,0.29c1.68,0.58,3.38,1.14,5.09,1.68
			c0.19,0.06,0.38,0.11,0.57,0.17c1.66,0.51,3.33,1,5.02,1.47c0.17,0.05,0.33,0.09,0.5,0.14c1.73,0.47,3.48,0.92,5.24,1.34
			c0.32,0.08,0.65,0.15,0.97,0.23c1.76,0.42,3.54,0.81,5.33,1.18c0.17,0.04,0.35,0.07,0.52,0.1c1.7,0.34,3.42,0.66,5.15,0.96
			c0.27,0.05,0.54,0.1,0.8,0.14c1.79,0.3,3.58,0.57,5.39,0.82c0.36,0.05,0.72,0.1,1.08,0.14c1.84,0.24,3.69,0.46,5.55,0.65
			c0.12,0.01,0.24,0.02,0.36,0.03c1.79,0.18,3.59,0.32,5.4,0.45c0.34,0.02,0.68,0.05,1.01,0.07c1.84,0.12,3.69,0.21,5.54,0.28
			c0.37,0.01,0.74,0.02,1.12,0.03c1.92,0.06,3.85,0.1,5.79,0.1c1.53,0,3.04-0.02,4.56-0.06c0.47-0.01,0.93-0.03,1.39-0.04
			c1.08-0.03,2.15-0.07,3.22-0.13c0.5-0.02,1-0.05,1.5-0.08c1.13-0.06,2.25-0.14,3.38-0.22c0.38-0.03,0.76-0.05,1.14-0.08
			c1.49-0.12,2.97-0.25,4.44-0.4c0.29-0.03,0.59-0.07,0.88-0.1c1.19-0.13,2.37-0.27,3.55-0.42c0.47-0.06,0.94-0.12,1.41-0.19
			c1.04-0.14,2.07-0.29,3.1-0.45c0.45-0.07,0.91-0.14,1.36-0.21c1.27-0.2,2.52-0.42,3.78-0.64c0.18-0.03,0.36-0.06,0.53-0.09
			c1.44-0.27,2.87-0.55,4.29-0.85c0.37-0.08,0.73-0.16,1.09-0.24c1.07-0.23,2.13-0.47,3.19-0.71c0.44-0.1,0.87-0.21,1.31-0.31
			c1.06-0.26,2.11-0.52,3.15-0.79c0.35-0.09,0.71-0.18,1.06-0.27c1.4-0.37,2.79-0.76,4.17-1.17c0.06-0.02,0.13-0.04,0.19-0.06
			c1.3-0.38,2.59-0.78,3.88-1.2c0.36-0.12,0.73-0.24,1.09-0.36c1.02-0.33,2.03-0.67,3.03-1.02c0.37-0.13,0.74-0.26,1.11-0.39
			c1.14-0.41,2.27-0.82,3.4-1.25c0.18-0.07,0.36-0.13,0.54-0.2c1.34-0.51,2.66-1.04,3.98-1.58c0.19-0.08,0.39-0.16,0.58-0.25
			c1.1-0.46,2.19-0.93,3.27-1.4c0.32-0.14,0.65-0.29,0.97-0.43c1.01-0.45,2-0.91,3-1.38c0.27-0.13,0.54-0.26,0.81-0.39
			c2.52-1.21,5-2.48,7.42-3.8c0.22-0.12,0.44-0.24,0.65-0.36c0.99-0.55,1.98-1.1,2.95-1.67c0.27-0.15,0.53-0.31,0.79-0.46
			c1.03-0.61,2.05-1.22,3.06-1.85c0.13-0.08,0.27-0.17,0.41-0.25c2.34-1.46,4.62-2.97,6.85-4.54c0.21-0.14,0.41-0.29,0.62-0.44
			c0.92-0.65,1.84-1.32,2.74-1.99c0.19-0.14,0.38-0.28,0.57-0.42c2.17-1.63,4.29-3.32,6.34-5.05c0.08-0.07,0.17-0.14,0.25-0.21
			c0.92-0.78,1.83-1.57,2.72-2.37c0.17-0.16,0.35-0.31,0.52-0.47c0.87-0.78,1.72-1.58,2.56-2.38c0.11-0.1,0.21-0.2,0.32-0.3
			c1.92-1.84,3.78-3.73,5.56-5.66c0.12-0.13,0.23-0.26,0.35-0.38c0.77-0.84,1.52-1.68,2.26-2.53c0.14-0.16,0.28-0.32,0.42-0.48
			c0.82-0.96,1.63-1.92,2.42-2.89c0,0,0.01-0.01,0.01-0.01c-17.16-1.52-33.96-2.29-50.5-2.29
			C366.13,266.1,356.41,266.37,346.76,266.91z"/>
		<linearGradient id="SVGID_2_" gradientUnits="userSpaceOnUse" x1="67.8665" y1="297.3916" x2="532.4871" y2="297.3916">
			<stop  offset="0" style="stop-color:#F37021"/>
			<stop  offset="0.5953" style="stop-color:#F78D1E"/>
			<stop  offset="1" style="stop-color:#F99D1C"/>
		</linearGradient>
		<path class="st2" d="M73.27,330.4l-5.41,18.62c52.58-30.39,100.87-52.41,147.42-67.25c53.09-16.92,105.63-25.14,160.64-25.14
			c48.26,0,98.51,6.26,153.49,19.12l3.08,0.72l-1-9.77c-179.22-39.69-299.83-25.2-456.05,62.47L73.27,330.4z"/>
		<path d="M345.06,150.32C345.06,150.31,345.06,150.31,345.06,150.32c-0.05-0.03-0.11-0.04-0.16-0.07
			c-0.15-0.06-0.29-0.12-0.44-0.18c-0.02,0-0.05,0-0.07,0c-13.67-5.23-31.94-3.17-43.96,6.31c1.68,4.74,4.63,8.46,9.86,11.88
			c4.48-8.37,23.28-11.72,23.74,2.67c0.01,0,0.02,0,0.03,0c0.02,1.08,0.04,2.17,0.06,3.25c-10.9-0.04-40,1.8-41.45,25.59
			c-1.61,27.78,32.43,26.93,42.09,10.26c0.05,2.74,0.1,5.47,0.14,8.21c8.59-0.5,17.36-0.83,26.27-0.95
			c-0.3-15.88-0.62-31.63-0.94-47.24C359.38,159.97,353.29,153.64,345.06,150.32z M334.35,193.45c-0.4,10.12-17.32,16.6-16.79,1.5
			c0.29-8.53,10.24-10.75,16.72-11.32c0.06,3.2,0.11,6.42,0.17,9.63L334.35,193.45z M260.17,122.28c-0.05,11.94-0.24,21.4-0.28,33.5
			c-5.68-3.91-13.48-4.21-22.41-2.13c-18.87,4.37-31.21,26.07-28.77,48.81c2.38,22.12,17.52,35.93,34.25,31.03
			c6.35-1.84,12.81-6.96,16.71-13.31c-0.01,2.55-0.02,5.11-0.02,7.67c8.5-1.62,17.33-3.1,26.44-4.4c-0.03-36-0.16-66.34-0.2-100.9
			C277.37,122.01,268.8,121.66,260.17,122.28z M259.73,201.3c-0.72,7.8-5.59,11.07-9.04,12c-8.16,2.22-15.84-5.84-17.3-18.28
			c-1.51-12.85,4.42-25.33,13.39-27.56c4.89-1.22,9.7-0.01,13.04,3.91C259.78,181.29,259.76,191.27,259.73,201.3z M476.01,174.45
			c0.33,11.34,0.63,22.75,0.92,34.23c-1.05,0.68-2.28,1.49-3.48,1.75c-5.74,1.28-10.73-2.35-11.08-10.4l-0.02,0
			c-0.24-9.9-0.5-19.74-0.77-29.53c-8-2.07-15.98-3.95-23.94-5.65c0.17,11.2,0.31,22.47,0.45,33.81c0.02,0,0.04,0,0.05,0.01
			c0.05,2.3,0.31,4.62,0.82,6.93c3.66,16.14,17.4,25.18,30.96,19.84c2.65-1.04,5.1-2.54,7.31-4.4c0.06,2.6,0.13,5.2,0.19,7.8
			c7.77,1.64,14.65,3.19,22.41,5.25c-0.53-17.75-1.13-35.33-1.8-52.73C490.39,178.76,483.66,176.66,476.01,174.45z M408.2,151.56
			l14.11-8.63c0,0-5.14-1.67-13.06-3.76l-5.87,3.4l-5.55-6.19c-4.96-1.11-10.36-2.19-15.93-3.08c3.16,3.66,13.73,16.06,13.73,16.06
			L408.2,151.56z M399.48,204.43c9.71-9.21,19.53-18.45,29.46-27.73c-0.02-0.8-0.04-1.6-0.06-2.4c0.01,0,0.03,0.01,0.03,0.01
			c-0.07-3.93-0.16-7.85-0.25-11.76c-20.24-4.05-40.22-6.93-59.62-8.88c0.05,4.28,0.11,8.57,0.16,12.87
			c11.14,0.89,22.48,2.11,33.95,3.67c-11.2,10.26-22.28,20.48-33.19,30.65c0.01,0.68,0.02,1.36,0.02,2.05h0
			c0.1,4.8,0.2,9.6,0.3,14.42c19.3,0.08,39.28,1.17,59.59,3.51c-0.08-4.42-0.17-8.83-0.25-13.24
			C419.48,206.25,409.42,205.2,399.48,204.43z M187.42,139.02c-2.5,0.12-8.86,1.21-17.55,4.01c-12.45,4-22.42,13.4-26.32,25.88
			l-35.32,112.76c0,0,9.24-5.51,18.53-10.29l15.36-48.15c6.71-3.18,22.16-8.9,26.51-10.02c2.82,12.32,5.61,24.71,8.36,37.17
			c10.23-3.53,20.14-7.02,32.38-10.34c-7.06-25.39-14-52.63-21.34-78.44C186.53,154.81,185.11,144.34,187.42,139.02z M147.04,207.78
			l11.72-36.73l0.01-0.02v0c2.38,10,4.75,20.04,7.08,30.13C161.19,202.52,152.07,205.51,147.04,207.78z M193.1,128.2
			c3.86-4.83,6.77-9.64,12.67-13.54c-2.34,0.04-17.22-0.81-31.73,5.58c-6.75,2.97-17.14,9.97-24.07,25.7
			c4.35-4.15,11.06-8.86,15.17-10.68C176.67,130.17,184.83,128.45,193.1,128.2z M512.87,168.98l-2.34,3.62l-2.21-3.7l-2.05-0.04
			l-0.15,8.65l1.87,0.03l0.1-5.61l2.35,3.7h0.05l2.5-3.65l-0.1,5.65l1.89,0.03l0.15-8.65L512.87,168.98z M497.61,170.47l2.63,0.05
			l-0.12,6.9l1.9,0.03l0.12-6.9l2.63,0.04l0.03-1.75l-7.17-0.12L497.61,170.47z"/>
		<g>
			<linearGradient id="SVGID_3_" gradientUnits="userSpaceOnUse" x1="178.5789" y1="202.3991" x2="454.7063" y2="202.3991">
				<stop  offset="0.0986" style="stop-color:#A6856E"/>
				<stop  offset="0.106" style="stop-color:#AC8B72"/>
				<stop  offset="0.1696" style="stop-color:#DEBB8A"/>
				<stop  offset="0.2" style="stop-color:#F2CE91"/>
				<stop  offset="0.2948" style="stop-color:#C0976E"/>
				<stop  offset="0.3997" style="stop-color:#8F664B"/>
				<stop  offset="0.45" style="stop-color:#7E553E"/>
				<stop  offset="0.5204" style="stop-color:#8D6247"/>
				<stop  offset="0.7433" style="stop-color:#BC8B60"/>
				<stop  offset="0.85" style="stop-color:#CF9C69"/>
				<stop  offset="0.9484" style="stop-color:#A37353"/>
				<stop  offset="1" style="stop-color:#91624A"/>
			</linearGradient>
			<path class="st3" d="M298.29,58.61c62.33,0,117.12,27.11,147.96,67.77c1.69,0.6,3.36,1.21,5.02,1.82
				c-11.57-16.27-26.82-30.54-44.79-42.03c0,0,0,0,0,0c-4.45-2.85-9.08-5.52-13.85-8.01c-0.11-0.06-0.21-0.11-0.32-0.16
				c-1.48-0.77-2.97-1.52-4.48-2.25c-0.11-0.05-0.21-0.1-0.32-0.16c-3.16-1.53-6.39-2.98-9.67-4.35c-0.22-0.09-0.44-0.18-0.66-0.27
				c-1.43-0.59-2.88-1.17-4.33-1.73c-0.22-0.09-0.45-0.17-0.67-0.26c-3.27-1.25-6.6-2.41-9.97-3.49c-0.33-0.1-0.65-0.21-0.98-0.31
				c-1.38-0.44-2.78-0.86-4.18-1.27c-0.34-0.1-0.68-0.2-1.01-0.3c-3.37-0.96-6.78-1.84-10.23-2.64c-0.42-0.1-0.84-0.19-1.26-0.28
				c-1.35-0.3-2.7-0.59-4.06-0.86c-0.43-0.09-0.86-0.18-1.3-0.26c-3.46-0.68-6.95-1.27-10.49-1.78c-0.49-0.07-0.98-0.13-1.47-0.2
				c-1.33-0.18-2.67-0.35-4.01-0.51c-0.5-0.06-0.99-0.12-1.49-0.17c-3.55-0.39-7.13-0.69-10.74-0.9c-0.53-0.03-1.06-0.06-1.58-0.08
				c-1.34-0.07-2.69-0.13-4.04-0.17c-0.53-0.02-1.07-0.04-1.6-0.05c-1.82-0.05-3.65-0.08-5.48-0.08c-37.35,0-72.04,9.6-100.65,25.98
				c-1.02,0.58-2.04,1.18-3.04,1.78c-2.01,1.2-3.99,2.44-5.94,3.71c-0.97,0.64-1.94,1.28-2.9,1.93c2.03-0.15,4.06-0.3,6.08-0.43
				C221.3,69.81,258.24,58.61,298.29,58.61z M298.29,346.19c-44.76,0-85.64-13.98-116.55-36.92c-1.06,0.45-2.11,0.9-3.16,1.35
				c31.57,23.93,73.61,38.56,119.71,38.56c1.89,0,3.77-0.03,5.65-0.08c0.53-0.01,1.06-0.03,1.59-0.05c1.47-0.05,2.94-0.11,4.4-0.19
				c0.45-0.02,0.9-0.04,1.34-0.07c1.85-0.11,3.7-0.24,5.53-0.4c0.34-0.03,0.68-0.07,1.03-0.1c1.53-0.14,3.06-0.3,4.58-0.47
				c0.5-0.06,1-0.11,1.5-0.17c1.64-0.2,3.28-0.41,4.9-0.65c0.19-0.03,0.38-0.05,0.57-0.08c1.83-0.27,3.65-0.57,5.47-0.88
				c0.4-0.07,0.79-0.14,1.19-0.21c1.49-0.27,2.97-0.55,4.44-0.85c0.38-0.08,0.76-0.15,1.14-0.23c3.62-0.76,7.2-1.6,10.74-2.54
				c0.34-0.09,0.67-0.18,1-0.27c1.64-0.44,3.27-0.91,4.89-1.39c0.11-0.03,0.23-0.07,0.34-0.1c1.82-0.55,3.63-1.12,5.42-1.71
				c0.1-0.03,0.2-0.07,0.3-0.1c1.67-0.56,3.32-1.13,4.97-1.73c0.19-0.07,0.38-0.14,0.57-0.21c3.53-1.29,7-2.68,10.41-4.15
				c0.06-0.03,0.12-0.05,0.18-0.08c31.51-13.69,57.46-34.99,74.27-60.93c-1.09-0.15-2.17-0.27-3.26-0.41
				C421.83,315.8,364.28,346.19,298.29,346.19z"/>
			<g>
				<g>
					<linearGradient id="SVGID_4_" gradientUnits="userSpaceOnUse" x1="59.3968" y1="241.2828" x2="532.8116" y2="241.2828">
						<stop  offset="0.1482" style="stop-color:#7E553E"/>
						<stop  offset="0.2187" style="stop-color:#AC8260"/>
						<stop  offset="0.2968" style="stop-color:#DEB883"/>
						<stop  offset="0.3342" style="stop-color:#F2CE91"/>
						<stop  offset="0.3982" style="stop-color:#C0976E"/>
						<stop  offset="0.469" style="stop-color:#8F664B"/>
						<stop  offset="0.5029" style="stop-color:#7E553E"/>
						<stop  offset="0.5522" style="stop-color:#8D6247"/>
						<stop  offset="0.7084" style="stop-color:#BC8B60"/>
						<stop  offset="0.7831" style="stop-color:#CF9C69"/>
						<stop  offset="0.8213" style="stop-color:#BF8D61"/>
						<stop  offset="0.9421" style="stop-color:#8F6448"/>
						<stop  offset="1" style="stop-color:#7E553E"/>
					</linearGradient>
					<path class="st4" d="M532.49,276.48l-3.08-0.72c-54.98-12.87-105.23-19.12-153.49-19.12c-55.01,0-107.55,8.22-160.64,25.14
						c-46.55,14.84-94.84,36.86-147.42,67.25l39.41-135.74L63.7,129.87c0,0,0,0,0.01,0l-1.4-2.67c-0.97,0.3-1.94,0.59-2.91,0.9
						l44.68,85.51L62.91,355.37c54.89-32.22,105.06-55.37,153.28-70.74c52.79-16.82,105.04-25,159.73-25
						c49.2,0,100.54,6.55,156.89,20.01L532.49,276.48z"/>
				</g>
				<g>
					<linearGradient id="SVGID_5_" gradientUnits="userSpaceOnUse" x1="435.0462" y1="200.5343" x2="499.7776" y2="200.5343">
						<stop  offset="0.1482" style="stop-color:#7E553E"/>
						<stop  offset="0.2187" style="stop-color:#AC8260"/>
						<stop  offset="0.2968" style="stop-color:#DEB883"/>
						<stop  offset="0.3342" style="stop-color:#F2CE91"/>
						<stop  offset="0.3982" style="stop-color:#C0976E"/>
						<stop  offset="0.469" style="stop-color:#8F664B"/>
						<stop  offset="0.5029" style="stop-color:#7E553E"/>
						<stop  offset="0.5522" style="stop-color:#8D6247"/>
						<stop  offset="0.7084" style="stop-color:#BC8B60"/>
						<stop  offset="0.7831" style="stop-color:#CF9C69"/>
						<stop  offset="0.8213" style="stop-color:#BF8D61"/>
						<stop  offset="0.9421" style="stop-color:#8F6448"/>
						<stop  offset="1" style="stop-color:#7E553E"/>
					</linearGradient>
					<path class="st5" d="M476.93,208.69c-0.29-11.47-0.59-22.87-0.92-34.2c-0.76,0.57-1.68,1.38-2.59,2.06
						c0.33,11.13,0.62,22.34,0.9,33.62C475.23,209.79,476.13,209.2,476.93,208.69z M477.41,228.83c-0.06-2.6-0.13-5.2-0.19-7.8
						c-2.21,1.86-4.66,3.37-7.31,4.4c-13.56,5.34-27.3-3.7-30.96-19.84c-0.51-2.3-0.77-4.63-0.82-6.93c-0.02,0-0.04-0.01-0.05-0.01
						c-0.13-11.33-0.28-22.59-0.45-33.78c-0.86,0.69-1.55,1.28-2.59,2.06c0.16,11.2,0.31,22.47,0.45,33.81
						c0.02,0,0.04,0.01,0.05,0.01c0.05,2.3,0.31,4.62,0.82,6.93c3.66,16.14,17.89,25.18,31.45,19.84c2.65-1.04,4.6-2.54,6.81-4.4
						c0.06,2.6,0.13,5.2,0.19,7.8c7.77,1.64,15.14,3.19,22.91,5.25c0.71-0.69,1.27-1.25,2.05-2.1
						C492.03,232.01,485.16,230.47,477.41,228.83z"/>
					<linearGradient id="SVGID_6_" gradientUnits="userSpaceOnUse" x1="367.5413" y1="178.1303" x2="429.8382" y2="178.1303">
						<stop  offset="0.1482" style="stop-color:#7E553E"/>
						<stop  offset="0.2187" style="stop-color:#AC8260"/>
						<stop  offset="0.2968" style="stop-color:#DEB883"/>
						<stop  offset="0.3342" style="stop-color:#F2CE91"/>
						<stop  offset="0.3982" style="stop-color:#C0976E"/>
						<stop  offset="0.469" style="stop-color:#8F664B"/>
						<stop  offset="0.5029" style="stop-color:#7E553E"/>
						<stop  offset="0.5522" style="stop-color:#8D6247"/>
						<stop  offset="0.7084" style="stop-color:#BC8B60"/>
						<stop  offset="0.7831" style="stop-color:#CF9C69"/>
						<stop  offset="0.8213" style="stop-color:#BF8D61"/>
						<stop  offset="0.9421" style="stop-color:#8F6448"/>
						<stop  offset="1" style="stop-color:#7E553E"/>
					</linearGradient>
					<path class="st6" d="M400.6,204.53c9.02-8.55,18.13-17.12,27.35-25.74c0.51-1.06,0.92-1.94,0.97-2.07
						c-9.92,9.28-19.73,18.51-29.43,27.71C399.85,204.46,400.22,204.5,400.6,204.53z M407.21,153.65l14.11-8.63
						c0,0,0.41-0.9,0.94-2.06l-14.05,8.6l-12.57-2.2c0,0-10.54-12.37-13.72-16.04c-0.26,0.41-0.66,1.31-1.01,2.08
						c3.16,3.66,13.73,16.06,13.73,16.06L407.21,153.65z M370.27,217.34c-0.1-4.82-0.2-9.63-0.3-14.42h0
						c-0.01-0.66-0.01-1.32-0.02-1.98c-0.21,0.27-1.13,1.55-1.5,2.02c0.01,0.68,0.02,2.05,0.02,2.05c0.1,4.8,0.2,9.6,0.3,14.42
						c19.3,0.08,39.78,1.17,60.09,3.51c0.48-0.98,0.92-1.97,0.97-2.1C409.54,218.5,389.57,217.42,370.27,217.34z M403.14,170.22
						c-11.47-1.56-22.81-2.78-33.95-3.67c-0.05-4.28-0.11-8.55-0.16-12.81c-0.13,0.17-0.96,1.26-1.5,2.04
						c0.05,4.28,0.11,8.57,0.16,12.87c10.77,0.86,22.2,2.03,33.32,3.53C401.73,171.52,402.43,170.87,403.14,170.22z"/>
					<linearGradient id="SVGID_7_" gradientUnits="userSpaceOnUse" x1="292.6262" y1="190.1414" x2="361.1584" y2="190.1414">
						<stop  offset="0.1482" style="stop-color:#7E553E"/>
						<stop  offset="0.2187" style="stop-color:#AC8260"/>
						<stop  offset="0.2968" style="stop-color:#DEB883"/>
						<stop  offset="0.3342" style="stop-color:#F2CE91"/>
						<stop  offset="0.3982" style="stop-color:#C0976E"/>
						<stop  offset="0.469" style="stop-color:#8F664B"/>
						<stop  offset="0.5029" style="stop-color:#7E553E"/>
						<stop  offset="0.5522" style="stop-color:#8D6247"/>
						<stop  offset="0.7084" style="stop-color:#BC8B60"/>
						<stop  offset="0.7831" style="stop-color:#CF9C69"/>
						<stop  offset="0.8213" style="stop-color:#BF8D61"/>
						<stop  offset="0.9421" style="stop-color:#8F6448"/>
						<stop  offset="1" style="stop-color:#7E553E"/>
					</linearGradient>
					<path class="st7" d="M317.56,194.95c-0.02,0.64,0,1.22,0.03,1.78c0.53-8.26,10.29-10.45,16.68-11
						c0.05,2.53,0.09,5.07,0.13,7.61l0.04-0.07c-0.06-3.21-0.11-6.43-0.17-9.63C327.81,184.2,317.86,186.42,317.56,194.95z
						 M361.12,217.29c-8.9,0.12-17.65,0.45-26.23,0.95c-0.05-2.75-0.09-5.47-0.14-8.21c-9.29,16.04-41.15,17.42-42.1-7.26
						c-0.8,26.83,32.56,25.84,42.1,9.35c0.05,2.74,0.1,5.47,0.14,8.21c8.59-0.5,17.36-0.83,26.27-0.95
						C361.15,218.68,361.13,217.99,361.12,217.29z M310.28,170.35c4.48-8.37,23.28-11.72,23.74,2.67c0.01,0,0.02,0,0.03,0
						c0.01,0.39,0.01,0.77,0.02,1.16c0.01,0,0.03,0,0.04,0c-0.02-1.08-0.04-2.17-0.06-3.25c-0.01,0-0.02,0-0.03,0
						c-0.46-14.39-19.25-11.04-23.74-2.67c-5.21-3.4-8.15-7.1-9.83-11.81c-0.01,0.28-0.03,1.5-0.03,2.03
						C302.11,163.21,305.05,166.93,310.28,170.35z"/>
					<linearGradient id="SVGID_8_" gradientUnits="userSpaceOnUse" x1="213.4182" y1="179.6127" x2="287.5745" y2="179.6127">
						<stop  offset="0.1482" style="stop-color:#7E553E"/>
						<stop  offset="0.2187" style="stop-color:#AC8260"/>
						<stop  offset="0.2968" style="stop-color:#DEB883"/>
						<stop  offset="0.3342" style="stop-color:#F2CE91"/>
						<stop  offset="0.3982" style="stop-color:#C0976E"/>
						<stop  offset="0.469" style="stop-color:#8F664B"/>
						<stop  offset="0.5029" style="stop-color:#7E553E"/>
						<stop  offset="0.5522" style="stop-color:#8D6247"/>
						<stop  offset="0.7084" style="stop-color:#BC8B60"/>
						<stop  offset="0.7831" style="stop-color:#CF9C69"/>
						<stop  offset="0.8213" style="stop-color:#BF8D61"/>
						<stop  offset="0.9421" style="stop-color:#8F6448"/>
						<stop  offset="1" style="stop-color:#7E553E"/>
					</linearGradient>
					<path class="st8" d="M242.96,233.49c-12.08,3.53-23.32-2.68-29.54-14.73c5.96,13.4,17.78,20.55,30.53,16.82
						c5.83-1.69,11.75-6.15,15.7-11.79c0-1.2,0.01-2.41,0.01-3.61C255.77,226.53,249.3,231.65,242.96,233.49z M236.5,205.4
						c-1.03-2.44-1.76-5.23-2.12-8.29c-1.51-12.85,4.42-25.33,13.39-27.56c4.42-1.11,8.78-0.21,12.04,2.87c0-0.35,0-0.7,0-1.05
						c-3.34-3.92-8.15-5.13-13.04-3.91c-8.98,2.23-14.9,14.71-13.39,27.56C233.85,198.99,234.95,202.52,236.5,205.4z M287.38,124.65
						c-0.39-0.53-1.28-1.72-1.49-2c0.04,34.52,0.17,64.84,0.2,100.81c-9.08,1.3-17.87,2.76-26.35,4.38
						c0.11,0.24,0.56,1.27,0.91,2.11c8.5-1.62,17.83-3.1,26.94-4.4C287.55,189.56,287.42,159.21,287.38,124.65z"/>
					<linearGradient id="SVGID_9_" gradientUnits="userSpaceOnUse" x1="108.3465" y1="199.2208" x2="211.951" y2="199.2208">
						<stop  offset="0.1482" style="stop-color:#7E553E"/>
						<stop  offset="0.2187" style="stop-color:#AC8260"/>
						<stop  offset="0.2968" style="stop-color:#DEB883"/>
						<stop  offset="0.3342" style="stop-color:#F2CE91"/>
						<stop  offset="0.3982" style="stop-color:#C0976E"/>
						<stop  offset="0.469" style="stop-color:#8F664B"/>
						<stop  offset="0.5029" style="stop-color:#7E553E"/>
						<stop  offset="0.5522" style="stop-color:#8D6247"/>
						<stop  offset="0.7084" style="stop-color:#BC8B60"/>
						<stop  offset="0.7831" style="stop-color:#CF9C69"/>
						<stop  offset="0.8213" style="stop-color:#BF8D61"/>
						<stop  offset="0.9421" style="stop-color:#8F6448"/>
						<stop  offset="1" style="stop-color:#7E553E"/>
					</linearGradient>
					<path class="st9" d="M159.94,175.99c-0.39-1.65-0.78-3.31-1.18-4.96v0l-0.01,0.02l-11.72,36.73c0.94-0.42,2.02-0.87,3.18-1.33
						L159.94,175.99z M152.06,148.04c4.35-4.15,11.06-8.86,15.17-10.68c11.53-5.1,19.69-6.82,27.96-7.07
						c3.86-4.83,6.77-9.64,12.67-13.54c-0.01,0-2.08-2.05-2.11-2.08c-5.88,3.9-8.79,8.7-12.65,13.52
						c-8.27,0.24-16.43,1.97-27.96,7.07c-4.09,1.81-10.77,6.49-15.12,10.63C150.08,145.99,151.92,148.07,152.06,148.04z
						 M142.12,223.22l-15.36,48.15c-8.69,4.48-17.34,9.59-18.41,10.23l1.98,2.16c0,0,9.24-5.51,18.53-10.29l15.36-48.15
						c6.08-2.88,19.31-7.84,24.99-9.58c-0.19-0.84-0.38-1.69-0.57-2.53C164.27,214.32,148.83,220.05,142.12,223.22z M190.61,163.69
						c-1.49-6.78-2.91-17.26-0.59-22.57c-0.82-0.53-2.48-1.95-2.6-2.05c-2.29,5.33-0.88,15.76,0.61,22.53
						c7.34,25.81,14.28,53.05,21.34,78.44c-12.22,3.31-22.11,6.8-32.32,10.32c0.05,0.06,1.1,1.19,2.04,2.11
						c10.23-3.53,20.64-7.02,32.87-10.34C204.89,216.73,197.95,189.49,190.61,163.69z"/>
				</g>
			</g>
		</g>
		
			<radialGradient id="SVGID_10_" cx="299.2845" cy="141.5694" r="187.7126" gradientTransform="matrix(1 0 0 0.9055 0 13.3762)" gradientUnits="userSpaceOnUse">
			<stop  offset="0" style="stop-color:#FFE189"/>
			<stop  offset="0.0877" style="stop-color:#FFE186"/>
			<stop  offset="0.1902" style="stop-color:#FFE17B"/>
			<stop  offset="0.2996" style="stop-color:#FFE066"/>
			<stop  offset="0.3778" style="stop-color:#FFDF4F"/>
			<stop  offset="0.5246" style="stop-color:#FFDB4C"/>
			<stop  offset="0.6888" style="stop-color:#FFD143"/>
			<stop  offset="0.8608" style="stop-color:#FEC134"/>
			<stop  offset="0.9985" style="stop-color:#FCAF26"/>
		</radialGradient>
		<path class="st10" d="M247.78,169.55c-8.98,2.23-14.9,14.71-13.39,27.56c0.36,3.06,1.09,5.85,2.12,8.29
			c3.3,6.15,8.63,9.41,14.18,7.9c3.45-0.93,8.32-4.2,9.04-12c0.03-9.68,0.06-19.31,0.09-28.88
			C256.56,169.34,252.2,168.45,247.78,169.55z M236.5,205.4c-0.38-0.71-0.73-1.45-1.05-2.23C235.77,203.95,236.12,204.7,236.5,205.4
			z M334.28,185.73c-6.39,0.56-16.15,2.74-16.68,11c0.84,12.75,16.37,6.41,16.76-3.28l0.1-0.19l-0.04,0.07
			C334.37,190.79,334.33,188.25,334.28,185.73z M521.13,165.45c-59.24-29.11-151.86-67.61-273.36-67.61
			c-61.86,0-125.23,10.18-188.38,30.26c0.97-0.31,1.94-0.59,2.91-0.9l1.4,2.67c0,0-0.01,0-0.01,0l43.58,83.42L73.27,330.4l2.17-1.22
			c156.22-87.68,276.82-102.16,456.05-62.47L521.13,165.45z M174.04,120.24c14.51-6.39,29.4-5.54,31.73-5.58
			c-0.01,0.01-0.01,0.01-0.02,0.02c0.04,0.03,2.1,2.07,2.11,2.08c-5.9,3.9-8.81,8.71-12.67,13.54c-8.27,0.24-16.43,1.97-27.96,7.07
			c-4.11,1.82-10.82,6.53-15.17,10.68c-0.14,0.03-1.98-2.05-2.04-2.14c-0.02,0.02-0.04,0.03-0.05,0.05
			C156.9,130.21,167.29,123.21,174.04,120.24z M179.08,252.46c-0.94-0.92-1.99-2.05-2.04-2.11c-0.02,0.01-0.03,0.01-0.05,0.02
			c-2.75-12.46-7.79-34.64-7.79-34.64c-5.68,1.74-18.91,6.71-24.99,9.58l-15.36,48.15c-9.28,4.78-18.53,10.29-18.53,10.29
			l-1.98-2.16c-0.07,0.04-0.11,0.07-0.11,0.07l35.32-112.76c3.91-12.48,13.88-21.88,26.32-25.88c8.69-2.8,15.05-3.89,17.55-4.01
			c-0.01,0.04-0.01,0.04-0.01,0.04c0.12,0.1,1.79,1.52,2.6,2.05c-2.32,5.32-0.9,15.79,0.59,22.57
			c7.34,25.81,14.28,53.05,21.34,78.44C199.71,245.44,189.31,248.93,179.08,252.46z M260.64,229.95c-0.35-0.84-0.8-1.87-0.91-2.11
			c-0.09,0.02-0.09,0.02-0.09,0.02c0-1.35,0.01-2.71,0.01-4.06c-3.95,5.63-9.87,10.1-15.7,11.79c-12.76,3.73-24.58-3.41-30.53-16.82
			c0,0,0,0,0,0c-2.4-4.64-4.05-10.15-4.71-16.31c-2.44-22.74,9.9-44.44,28.77-48.81c8.93-2.08,16.73-1.78,22.41,2.13
			c0.05-12.11,0.23-21.57,0.28-33.5c8.64-0.62,17.2-0.27,25.72,0.28v0.09c0.22,0.28,1.1,1.47,1.49,2c0.04,34.56,0.17,64.9,0.2,100.9
			C278.47,226.85,269.14,228.33,260.64,229.95z M361.16,219.38c-8.92,0.12-17.68,0.45-26.27,0.95c-0.05-2.75-0.09-5.47-0.14-8.21
			c-9.54,16.48-42.9,17.48-42.1-9.35c0,0,0,0.01,0,0.01c-0.04-0.97-0.04-1.96,0.02-3.01c1.45-23.79,30.55-25.63,41.45-25.59
			c-0.01,0-0.03,0-0.04,0c-0.01-0.39-0.01-0.77-0.02-1.16c-0.01,0-0.02,0-0.03,0c-0.46-14.39-19.25-11.04-23.74-2.67
			c-5.23-3.42-8.18-7.14-9.86-11.88c0-0.53,0.02-1.74,0.03-2.03c-0.01-0.02-0.02-0.04-0.03-0.07c12.02-9.48,30.29-11.54,43.96-6.31
			c0.02,0,0.05,0,0.07,0c0.15,0.06,0.29,0.12,0.44,0.18c0.05,0.02,0.11,0.04,0.16,0.06c0,0,0,0,0,0.01
			c8.23,3.33,14.32,9.66,15.16,19.74c0.32,15.61,0.64,31.35,0.94,47.24c-0.01,0-0.03,0-0.04,0
			C361.13,217.99,361.15,218.68,361.16,219.38z M381.9,133.31c5.57,0.89,10.97,1.97,15.93,3.08l5.55,6.19l5.87-3.4
			c7.92,2.08,13.06,3.76,13.06,3.76l-0.06,0.03c-0.53,1.15-0.94,2.06-0.94,2.06l-14.11,8.63l-12.57-2.2c0,0-10.57-12.4-13.73-16.06
			c0.35-0.77,0.75-1.66,1.01-2.08C381.91,133.32,381.9,133.31,381.9,133.31z M429.84,220.84c-0.05,0.12-0.49,1.11-0.97,2.1
			c-20.31-2.34-40.79-3.42-60.09-3.51c-0.1-4.82-0.2-9.63-0.3-14.42c0,0-0.01-1.37-0.02-2.05c0.37-0.48,1.29-1.75,1.5-2.02
			c0-0.02,0-0.05,0-0.07c10.22-9.52,20.59-19.09,31.07-28.7c-11.12-1.49-22.55-2.66-33.32-3.53c-0.05-4.3-0.11-8.59-0.16-12.87
			c0.54-0.77,1.37-1.87,1.5-2.04c0,0,0,0,0-0.06c19.4,1.94,39.38,4.82,59.62,8.88c0.09,3.91,0.18,7.83,0.25,11.76
			c0,0-0.02,0-0.03-0.01c0.02,0.8,0.04,1.6,0.06,2.4c-0.01,0.01-0.02,0.02-0.03,0.03c-0.04,0.12-0.46,1.01-0.97,2.07
			c-9.22,8.61-18.32,17.19-27.35,25.74c-0.37-0.03-0.75-0.07-1.12-0.09c9.94,0.77,20,1.82,30.14,3.18c0.09,4.4,0.17,8.81,0.25,13.24
			C429.86,220.84,429.85,220.84,429.84,220.84z M499.78,234.08c-0.77,0.85-1.34,1.41-2.05,2.1c-7.76-2.07-15.14-3.61-22.91-5.25
			c-0.06-2.6-0.13-5.2-0.19-7.8c-2.21,1.86-4.17,3.37-6.81,4.4c-13.56,5.34-27.8-3.7-31.45-19.84c-0.51-2.3-0.77-4.63-0.82-6.93
			c-0.02,0-0.04-0.01-0.05-0.01c-0.13-11.34-0.28-22.61-0.45-33.81c1.04-0.78,1.73-1.37,2.59-2.06c0-0.01,0-0.02,0-0.03
			c7.96,1.7,15.95,3.58,23.94,5.65c0.27,9.79,0.53,19.63,0.77,29.53l0.02,0c0.35,8.04,5.34,11.68,11.08,10.4
			c0.29-0.06,0.58-0.16,0.87-0.28c-0.28-11.28-0.58-22.48-0.9-33.62c0.91-0.68,1.83-1.49,2.59-2.06c0,0,0,0,0-0.04
			c7.65,2.2,14.38,4.31,22.01,6.9c0.67,17.41,1.27,34.98,1.8,52.73C499.81,234.08,499.79,234.08,499.78,234.08z M504.78,170.59
			l-2.63-0.04l-0.12,6.9l-1.9-0.03l0.12-6.9l-2.63-0.05l0.03-1.76l7.17,0.12L504.78,170.59z M514.77,177.67l-1.89-0.03l0.1-5.65
			l-2.5,3.65h-0.05l-2.35-3.7l-0.1,5.61l-1.87-0.03l0.15-8.65l2.05,0.04l2.21,3.7l2.34-3.62l2.05,0.04L514.77,177.67z
			 M150.22,206.45L150.22,206.45c5.09-2,11.84-4.19,15.62-5.3c-1.95-8.42-3.92-16.81-5.91-25.17L150.22,206.45z"/>
		<path class="st11" d="M426.43,268.39c-27.18,33.6-74.46,55.88-128.14,55.88c-34.57,0-66.48-9.24-92.09-24.8
			c-8.45,3.15-16.51,6.43-24.45,9.8c30.91,22.93,71.78,36.91,116.54,36.91c66,0,123.55-30.39,153.16-75.08
			C443.02,270.02,434.68,269.12,426.43,268.39z M294.14,63.72c55.19,0,104.24,22.35,134.94,56.79c5.87,1.92,11.59,3.88,17.18,5.88
			c-30.84-40.67-85.63-67.78-147.97-67.78c-40.05,0-76.97,11.2-106.44,29.98c2.59-0.17,5.17-0.33,7.74-0.47
			C226.54,72.73,259.1,63.72,294.14,63.72z"/>
	</g>
</g>
</svg>
